<svg width="9" height="5" viewBox="0 0 9 5" fill="none" xmlns="http://www.w3.org/2000/svg">
<path d="M4.5 5C4.42184 5 4.35271 4.97137 4.29258 4.91409L0.0901799 0.910653C0.0300567 0.853376 -4.63799e-07 0.787517 -4.63799e-07 0.713058C-4.63799e-07 0.6386 0.0300567 0.572741 0.0901799 0.515464L0.541082 0.0859107C0.601205 0.028634 0.670337 0 0.748497 0C0.826656 0 0.895788 0.028634 0.955911 0.0859107L4.5 3.4622L8.04409 0.0859107C8.10421 0.028634 8.17334 0 8.2515 0C8.32966 0 8.39879 0.028634 8.45892 0.0859107L8.90982 0.515464C8.96994 0.572741 9 0.6386 9 0.713058C9 0.787517 8.96994 0.853376 8.90982 0.910653L4.70741 4.91409C4.64729 4.97137 4.57816 5 4.5 5Z" fill="#1B1E20"/>
</svg>
