<svg width="12" height="15" viewBox="0 0 12 15" fill="none" xmlns="http://www.w3.org/2000/svg">
<path d="M4.28571 1.66667V2.5H7.71429V1.66667C7.71429 1.20651 8.09732 0.833336 8.57143 0.833336C9.04554 0.833336 9.42857 1.20651 9.42857 1.66667V2.5H10.7143C11.4241 2.5 12 3.05964 12 3.75V5H0V3.75C0 3.05964 0.575625 2.5 1.28571 2.5H2.57143V1.66667C2.57143 1.20651 2.95446 0.833336 3.42857 0.833336C3.90268 0.833336 4.28571 1.20651 4.28571 1.66667ZM0 5.83334H12V12.9167C12 13.6068 11.4241 14.1667 10.7143 14.1667H1.28571C0.575625 14.1667 0 13.6068 0 12.9167V5.83334ZM1.71429 8.75C1.71429 8.97917 1.90607 9.16667 2.14286 9.16667H3C3.23571 9.16667 3.42857 8.97917 3.42857 8.75V7.91667C3.42857 7.6875 3.23571 7.5 3 7.5H2.14286C1.90607 7.5 1.71429 7.6875 1.71429 7.91667V8.75ZM5.14286 8.75C5.14286 8.97917 5.33571 9.16667 5.57143 9.16667H6.42857C6.66429 9.16667 6.85714 8.97917 6.85714 8.75V7.91667C6.85714 7.6875 6.66429 7.5 6.42857 7.5H5.57143C5.33571 7.5 5.14286 7.6875 5.14286 7.91667V8.75ZM9 7.5C8.76429 7.5 8.57143 7.6875 8.57143 7.91667V8.75C8.57143 8.97917 8.76429 9.16667 9 9.16667H9.85714C10.0929 9.16667 10.2857 8.97917 10.2857 8.75V7.91667C10.2857 7.6875 10.0929 7.5 9.85714 7.5H9ZM1.71429 12.0833C1.71429 12.3125 1.90607 12.5 2.14286 12.5H3C3.23571 12.5 3.42857 12.3125 3.42857 12.0833V11.25C3.42857 11.0208 3.23571 10.8333 3 10.8333H2.14286C1.90607 10.8333 1.71429 11.0208 1.71429 11.25V12.0833ZM5.57143 10.8333C5.33571 10.8333 5.14286 11.0208 5.14286 11.25V12.0833C5.14286 12.3125 5.33571 12.5 5.57143 12.5H6.42857C6.66429 12.5 6.85714 12.3125 6.85714 12.0833V11.25C6.85714 11.0208 6.66429 10.8333 6.42857 10.8333H5.57143ZM8.57143 12.0833C8.57143 12.3125 8.76429 12.5 9 12.5H9.85714C10.0929 12.5 10.2857 12.3125 10.2857 12.0833V11.25C10.2857 11.0208 10.0929 10.8333 9.85714 10.8333H9C8.76429 10.8333 8.57143 11.0208 8.57143 11.25V12.0833Z" fill="#7B9BB7"/>
</svg>
